HIERARCHY
ROOT Hips
{
	OFFSET 0.000000 0.000000 0.000000 
	CHANNELS 6 Xposition Yposition Zposition Yrotation Xrotation Zrotation
	JOINT Spine
	{
		OFFSET 0.000000 0.072080 0.012321 
		CHANNELS 3 Xrotation Yrotation Zrotation
		JOINT Spine1
		{
			OFFSET 0.000000 0.126984 -0.001294 
			CHANNELS 3 Xrotation Yrotation Zrotation
			JOINT Spine2
			{
				OFFSET 0.000000 0.106559 -0.010096 
				CHANNELS 3 Xrotation Yrotation Zrotation
				JOINT Neck
				{
					OFFSET 0.000000 0.108417 -0.034017 
					CHANNELS 3 Xrotation Yrotation Zrotation
					JOINT Neck1
					{
						OFFSET 0.000000 0.033906 0.007241 
						CHANNELS 3 Xrotation Yrotation Zrotation
						JOINT Head
						{
							OFFSET 0.000000 0.031458 0.006707 
							CHANNELS 3 Xrotation Yrotation Zrotation
							End Site
							{
								OFFSET 0.000000 0.179920 0.000962 
							}
						}
					}
				}
				JOINT LeftShoulder
				{
					OFFSET 0.048002 0.079586 -0.029634 
					CHANNELS 3 Zrotation Xrotation Yrotation
					JOINT LeftArm
					{
						OFFSET 0.096243 -0.008695 -0.014012 
						CHANNELS 3 Zrotation Xrotation Yrotation
						JOINT LeftForeArm
						{
							OFFSET 0.216305 0.000000 0.000000 
							CHANNELS 3 Xrotation Zrotation Yrotation
							JOINT LeftHand
							{
								OFFSET 0.217764 0.000000 0.000000 
								CHANNELS 3 Zrotation Yrotation Xrotation
								JOINT LeftHandThumb1
								{
									OFFSET 0.018582 -0.007835 0.020476 
									CHANNELS 3 Zrotation Xrotation Yrotation
									JOINT LeftHandThumb2
									{
										OFFSET 0.026269 -0.007835 0.022186 
										CHANNELS 3 Zrotation Xrotation Yrotation
										JOINT LeftHandThumb3
										{
											OFFSET 0.035170 -0.010504 0.017018 
											CHANNELS 3 Zrotation Xrotation Yrotation
											End Site
											{
												OFFSET 0.020312 -0.007813 0.007813 
											}
										}
									}
								}
								JOINT LeftHandMiddle1
								{
									OFFSET 0.081749 0.004803 0.003358 
									CHANNELS 3 Zrotation Xrotation Yrotation
									JOINT LeftHandMiddle2
									{
										OFFSET 0.045251 0.000000 0.000000 
										CHANNELS 3 Zrotation Xrotation Yrotation
										JOINT LeftHandMiddle3
										{
											OFFSET 0.029009 0.000000 0.000000 
											CHANNELS 3 Zrotation Xrotation Yrotation
											End Site
											{
												OFFSET 0.017969 0.000000 0.000000 
											}
										}
									}
								}
								JOINT LeftHandIndex1
								{
									OFFSET 0.081207 0.004803 0.021137 
									CHANNELS 3 Zrotation Xrotation Yrotation
									JOINT LeftHandIndex2
									{
										OFFSET 0.043354 0.000000 0.000000 
										CHANNELS 3 Zrotation Xrotation Yrotation
										JOINT LeftHandIndex3
										{
											OFFSET 0.026493 0.000000 0.000000 
											CHANNELS 3 Zrotation Xrotation Yrotation
											End Site
											{
												OFFSET 0.019531 0.000000 0.000000 
											}
										}
									}
								}
								JOINT LeftHandRing1
								{
									OFFSET 0.080666 0.002509 -0.014652 
									CHANNELS 3 Zrotation Xrotation Yrotation
									JOINT LeftHandRing2
									{
										OFFSET 0.042541 0.000000 0.000000 
										CHANNELS 3 Zrotation Xrotation Yrotation
										JOINT LeftHandRing3
										{
											OFFSET 0.029009 0.000000 0.000000 
											CHANNELS 3 Zrotation Xrotation Yrotation
											End Site
											{
												OFFSET 0.015625 0.000000 0.000000 
											}
										}
									}
								}
								JOINT LeftHandPinky1
								{
									OFFSET 0.078227 -0.000612 -0.030993 
									CHANNELS 3 Zrotation Xrotation Yrotation
									JOINT LeftHandPinky2
									{
										OFFSET 0.028721 0.000000 0.000000 
										CHANNELS 3 Zrotation Xrotation Yrotation
										JOINT LeftHandPinky3
										{
											OFFSET 0.021963 0.000000 0.000000 
											CHANNELS 3 Zrotation Xrotation Yrotation
											End Site
											{
												OFFSET 0.022656 0.000000 0.000000 
											}
										}
									}
								}
							}
						}
					}
				}
				JOINT RightShoulder
				{
					OFFSET -0.047970 0.079586 -0.029634 
					CHANNELS 3 Zrotation Xrotation Yrotation
					JOINT RightArm
					{
						OFFSET -0.096274 -0.008695 -0.014012 
						CHANNELS 3 Zrotation Xrotation Yrotation
						JOINT RightForeArm
						{
							OFFSET -0.216305 0.000000 0.000000 
							CHANNELS 3 Xrotation Zrotation Yrotation
							JOINT RightHand
							{
								OFFSET -0.217764 0.000000 0.000000 
								CHANNELS 3 Zrotation Yrotation Xrotation
								JOINT RightHandThumb1
								{
									OFFSET -0.019670 -0.007318 0.019638 
									CHANNELS 3 Zrotation Xrotation Yrotation
									JOINT RightHandThumb2
									{
										OFFSET -0.025498 -0.008492 0.023179 
										CHANNELS 3 Zrotation Xrotation Yrotation
										JOINT RightHandThumb3
										{
											OFFSET -0.034504 -0.010705 0.016680 
											CHANNELS 3 Zrotation Xrotation Yrotation
											End Site
											{
												OFFSET -0.020312 -0.007813 0.007813 
											}
										}
									}
								}
								JOINT RightHandIndex1
								{
									OFFSET -0.081770 0.003825 0.021187 
									CHANNELS 3 Zrotation Xrotation Yrotation
									JOINT RightHandIndex2
									{
										OFFSET -0.042006 0.000000 0.000000 
										CHANNELS 3 Zrotation Xrotation Yrotation
										JOINT RightHandIndex3
										{
											OFFSET -0.026449 0.000000 0.000000 
											CHANNELS 3 Zrotation Xrotation Yrotation
											End Site
											{
												OFFSET -0.020312 0.000000 0.000000 
											}
										}
									}
								}
								JOINT RightHandMiddle1
								{
									OFFSET -0.084059 0.003825 0.003342 
									CHANNELS 3 Zrotation Xrotation Yrotation
									JOINT RightHandMiddle2
									{
										OFFSET -0.043881 0.000000 0.000000 
										CHANNELS 3 Zrotation Xrotation Yrotation
										JOINT RightHandMiddle3
										{
											OFFSET -0.029191 0.000000 0.000000 
											CHANNELS 3 Zrotation Xrotation Yrotation
											End Site
											{
												OFFSET -0.017969 0.000000 0.000000 
											}
										}
									}
								}
								JOINT RightHandRing1
								{
									OFFSET -0.081798 0.003030 -0.015127 
									CHANNELS 3 Zrotation Xrotation Yrotation
									JOINT RightHandRing2
									{
										OFFSET -0.042198 0.000000 0.000000 
										CHANNELS 3 Zrotation Xrotation Yrotation
										JOINT RightHandRing3
										{
											OFFSET -0.026497 0.000000 0.000000 
											CHANNELS 3 Zrotation Xrotation Yrotation
											End Site
											{
												OFFSET -0.017188 0.000000 0.000000 
											}
										}
									}
								}
								JOINT RightHandPinky1
								{
									OFFSET -0.077902 -0.000930 -0.030891 
									CHANNELS 3 Zrotation Xrotation Yrotation
									JOINT RightHandPinky2
									{
										OFFSET -0.028538 0.000000 0.000000 
										CHANNELS 3 Zrotation Xrotation Yrotation
										JOINT RightHandPinky3
										{
											OFFSET -0.021734 0.000000 0.000000 
											CHANNELS 3 Zrotation Xrotation Yrotation
											End Site
											{
												OFFSET -0.022656 0.000000 0.000000 
											}
										}
									}
								}
							}
						}
					}
				}
			}
		}
	}
	JOINT LeftUpLeg
	{
		OFFSET 0.075264 -0.025573 0.000000 
		CHANNELS 3 Xrotation Yrotation Zrotation
		JOINT LeftLeg
		{
			OFFSET 0.000000 -0.326016 -0.013516 
			CHANNELS 3 Xrotation Yrotation Zrotation
			JOINT LeftFoot
			{
				OFFSET 0.000098 -0.306172 -0.006623 
				CHANNELS 3 Xrotation Yrotation Zrotation
				JOINT LeftToeBase
				{
					OFFSET -0.001432 -0.095259 0.064705 
					CHANNELS 3 Xrotation Yrotation Zrotation
					End Site
					{
						OFFSET 0.000000 0.000000 0.079438 
					}
				}
			}
		}
	}
	JOINT RightUpLeg
	{
		OFFSET -0.075264 -0.025573 0.000000 
		CHANNELS 3 Xrotation Yrotation Zrotation
		JOINT RightLeg
		{
			OFFSET 0.000000 -0.326016 -0.013516 
			CHANNELS 3 Xrotation Yrotation Zrotation
			JOINT RightFoot
			{
				OFFSET 0.000098 -0.306172 -0.006623 
				CHANNELS 3 Xrotation Yrotation Zrotation
				JOINT RightToeBase
				{
					OFFSET -0.001432 -0.095259 0.064705 
					CHANNELS 3 Xrotation Yrotation Zrotation
					End Site
					{
						OFFSET 0.000025 0.000000 0.079438 
					}
				}
			}
		}
	}
}
MOTION
Frames: 5
Frame Time: 0.033333
0.000083 0.738473 -0.000248 10.021700 -0.275900 -4.098200 2.609600 -0.722100 2.847200 1.656100 -2.278700 0.845900 -2.923700 -2.285100 0.251900 -3.367600 -1.151200 -0.984000 -0.000000 0.000000 -0.000000 -1.349400 -3.841500 0.310200 2.953500 7.148800 -21.325800 -76.825203 -4.013000 2.602400 -0.000000 0.000000 -36.305099 -3.766100 -17.027000 25.779900 16.497400 35.053699 10.838400 -16.920700 -16.048800 -3.014300 5.038600 5.581000 -14.708300 -13.746600 -0.744800 3.514000 -27.292500 -0.377600 0.660200 -16.088900 -0.019800 0.228100 6.980300 0.347900 1.522400 -16.973101 -0.207700 0.730200 -3.848900 -0.019000 -0.217500 -31.562799 -1.495800 1.785500 -17.282900 0.074700 0.297600 -12.642100 0.168900 -0.034200 -28.628500 -2.011100 8.277800 -29.212700 -0.135500 -0.281100 -6.843800 -0.065000 0.834900 5.374200 -0.358500 5.303400 73.959396 3.590200 -21.975901 0.000000 0.000000 32.516800 8.363500 2.503400 30.866100 -10.976700 19.650900 -15.920200 -12.105100 -0.050700 7.836400 4.732500 -15.031800 15.788500 8.085600 -0.316600 4.075300 26.910299 -0.459500 -1.210600 17.423100 -0.122800 0.884800 20.974600 -1.196500 -3.828200 38.200298 -0.771300 -1.288400 31.209999 -0.213400 -0.644100 38.785599 -2.125400 -2.551700 23.922400 0.002400 -0.774300 20.163300 0.091300 1.459200 42.964298 -2.587800 -4.048200 49.223801 -0.606900 -0.524600 43.328499 -0.789900 1.565100 -25.045000 -0.835400 2.769100 68.088097 2.290200 6.884100 0.067000 0.215800 -1.537300 -1.567200 0.000000 -0.000000 -8.404100 -12.792700 9.054700 18.139999 1.548300 -1.896800 -8.420700 -5.005900 -4.461500 -2.773200 0.000000 -0.000000 
0.002414 0.740766 0.038902 8.452200 0.506900 -2.979600 2.218100 -0.255100 2.282300 1.320700 -1.249900 0.284500 -3.217900 -1.239400 -0.283700 -2.924300 -1.309500 -0.732100 -0.000000 0.000000 -0.000000 -0.381100 -4.256700 0.844500 2.288600 7.218500 -21.327499 -78.323196 -6.966100 5.807400 -0.000000 0.000000 -32.694000 -11.562600 -8.234700 31.594700 20.052200 34.348999 10.701200 -16.658100 -9.553100 -8.040500 6.754800 4.939000 -23.574400 -15.453400 -0.845900 4.501800 -27.271099 -0.377400 0.660400 -16.072100 -0.019800 0.228200 3.586600 1.420800 1.745700 -17.179800 -0.210400 0.729100 -4.055500 -0.019000 -0.217800 -33.430500 -1.590300 1.935800 -17.112101 0.073900 0.297900 -12.470500 0.167200 -0.034000 -29.488001 -2.071800 9.088900 -29.193800 -0.135400 -0.281000 -6.824900 -0.064900 0.835000 5.455500 -0.324800 5.630000 72.696198 2.487600 -16.314199 0.000000 0.000000 33.397099 6.866400 1.035000 31.623501 -11.278100 19.289000 -15.741300 -11.831400 -0.319200 7.477000 4.685700 -15.045800 16.035999 8.256500 -0.314300 4.441600 26.925400 -0.459800 -1.210800 17.438299 -0.122900 0.884500 21.483299 -1.218100 -3.075400 38.213902 -0.771600 -1.288500 31.219801 -0.213500 -0.644300 39.005798 -2.136000 -2.510700 23.976700 0.002200 -0.775300 20.218100 0.091400 1.458100 43.339298 -2.591800 -3.893000 49.259800 -0.607500 -0.524900 43.364498 -0.790600 1.564800 -30.044399 -1.099800 -0.136500 61.173100 4.124900 6.598900 -2.997400 0.678400 -3.581700 -0.789000 -0.000000 -0.000000 -5.740100 -12.948100 8.325100 17.582800 1.384100 -2.265000 -9.717000 -2.718200 -3.836400 -2.707300 0.000000 -0.000000 
0.005359 0.738766 0.078194 6.074700 1.388000 -1.844200 1.741700 0.261300 1.685700 1.189300 -0.070700 -0.011000 -3.312100 -0.061100 -0.540000 -3.121400 -1.251200 -1.091500 -0.000000 0.000000 -0.000000 0.167200 -4.499400 0.960800 0.227900 7.439700 -19.899401 -77.488899 -10.530900 9.932400 -0.000000 0.000000 -32.035000 -19.903999 3.065200 39.859200 23.796101 33.708900 10.634900 -16.106199 -1.783100 -3.713100 6.696100 4.641500 -27.803499 -16.077101 -0.887300 5.239600 -27.249300 -0.377100 0.660600 -16.056101 -0.019700 0.228200 1.723600 2.669700 1.928300 -17.305700 -0.212000 0.728400 -4.181300 -0.019000 -0.218000 -34.031601 -1.625500 2.083500 -17.046301 0.073600 0.298000 -12.404300 0.166500 -0.034000 -29.474600 -2.075100 9.246400 -29.225201 -0.135500 -0.281100 -6.856400 -0.065200 0.834900 3.846100 -0.352600 6.419300 72.741798 1.618900 -10.666200 0.000000 -0.000000 33.865700 6.140100 -0.038600 31.075899 -11.091800 19.368299 -15.046900 -11.750300 -0.933600 7.132200 4.644200 -15.058200 16.257500 8.529400 -0.316500 4.796800 26.849701 -0.458200 -1.209900 17.362499 -0.122500 0.885900 22.023500 -1.240900 -2.270900 38.225601 -0.771900 -1.288500 31.226700 -0.213600 -0.644400 39.362801 -2.154200 -2.466100 24.052999 0.001900 -0.776600 20.295000 0.091700 1.456600 43.862598 -2.595100 -3.656800 49.194901 -0.606400 -0.524400 43.299599 -0.789400 1.565300 -33.276100 -0.929600 -1.841100 51.237900 5.080400 5.861000 -4.011800 0.834400 -3.754900 -0.131200 -0.000000 -0.000000 -3.812900 -13.084000 6.937500 18.577101 2.402000 -2.438700 -13.029800 -0.028400 -3.196500 -2.431500 0.000000 -0.047600 
0.008734 0.734319 0.118573 3.301900 2.159300 -0.594800 1.376500 0.671300 1.252100 1.083200 0.807500 -0.532500 -3.396400 0.838300 -1.023600 -3.502600 -1.039000 -1.491700 -0.000000 0.000000 -0.000000 0.265000 -4.087400 0.791300 -2.055600 7.596400 -16.692900 -75.561798 -13.633500 14.288500 -0.000000 0.000000 -32.026901 -24.653000 14.729500 48.348900 27.240700 33.195702 10.462200 -15.760000 -2.513200 0.247500 7.485400 4.602200 -29.496401 -12.962400 -0.721000 5.056500 -27.148399 -0.375700 0.661600 -15.954000 -0.019600 0.228500 4.240200 4.106100 1.295800 -17.642300 -0.216200 0.726600 -4.518100 -0.018900 -0.218600 -31.174400 -1.503200 2.280600 -17.100100 0.073800 0.297900 -12.458400 0.167100 -0.034000 -26.857100 -1.930200 8.486900 -29.437099 -0.136300 -0.282100 -7.068200 -0.066900 0.834200 2.224400 -0.355500 7.937300 73.091301 1.929000 -5.465200 -0.000000 -0.000000 33.995701 6.290200 -0.375100 29.290600 -10.785800 19.535500 -13.990600 -11.713900 -1.550000 6.726900 4.610400 -15.068300 16.439699 9.102500 -0.335800 5.015500 26.646900 -0.453900 -1.207600 17.159700 -0.121300 0.889600 22.654499 -1.268900 -1.473600 38.232700 -0.772100 -1.288600 31.229601 -0.213600 -0.644400 39.944901 -2.180500 -2.326300 24.085800 0.001800 -0.777200 20.328600 0.091700 1.455900 44.420799 -2.593800 -3.326400 49.113201 -0.604900 -0.523700 43.217899 -0.787800 1.566000 -35.194099 0.091200 -2.656500 39.395100 5.222000 4.950600 -4.023900 0.632600 -2.632200 -0.230100 0.000000 -0.000000 -1.720400 -13.529800 5.034500 19.746000 5.747600 -2.667600 -17.167299 0.277700 -2.805600 -2.392500 0.000000 -0.000000 
0.011809 0.728724 0.160946 0.628800 2.544700 0.255800 1.095300 1.076400 1.227700 1.317300 1.554000 -0.953900 -3.139800 1.612100 -1.404400 -4.127200 -0.688600 -2.262200 -0.000000 0.000000 -0.000000 0.043100 -3.611800 0.446500 -3.913900 7.609100 -13.503600 -73.901100 -14.485300 17.499500 -0.000000 0.000000 -30.359200 -27.261499 20.122900 54.514000 29.870701 32.801399 10.029200 -15.277200 -10.576200 3.389900 8.565900 4.771100 -28.118900 -8.674300 -0.483000 4.225900 -27.082800 -0.374800 0.662200 -15.883000 -0.019600 0.228800 7.800600 5.630500 0.265200 -17.911800 -0.219700 0.725100 -4.788200 -0.018900 -0.219100 -27.273800 -1.325400 2.466200 -17.241501 0.074500 0.297700 -12.600100 0.168500 -0.034100 -23.746799 -1.755200 7.537900 -29.706499 -0.137200 -0.283400 -7.337600 -0.069100 0.833300 -0.221200 -0.449000 9.986600 74.189499 2.772700 -1.134100 0.000000 0.000000 34.234100 7.067300 0.455600 26.987499 -10.526500 19.566601 -12.183900 -11.585000 -2.226200 6.041800 4.577400 -15.078400 16.621201 10.370300 -0.403400 5.142800 26.533300 -0.451500 -1.206300 17.046101 -0.120700 0.891700 23.915001 -1.334300 -0.635400 38.225700 -0.771900 -1.288500 31.218100 -0.213500 -0.644200 41.107101 -2.227600 -1.951400 24.019800 0.002000 -0.776000 20.261900 0.091600 1.457200 45.365501 -2.630200 -2.736900 48.916100 -0.601400 -0.522100 43.020199 -0.784100 1.567500 -36.442501 1.475400 -2.482400 28.392200 4.662500 3.963700 -4.448400 0.289400 -1.694500 -1.826000 0.000000 -0.000000 1.528800 -14.509000 3.226700 19.438801 9.280600 -2.665200 -19.705900 0.254400 -2.494100 -2.994600 -0.000000 -0.000000 
